<svg xmlns="http://www.w3.org/2000/svg" xmlns:xlink="http://www.w3.org/1999/xlink" xmlns:inkscape="http://www.inkscape.org/namespaces/inkscape" version="1.1" width="273.401" height="180.848" viewBox="0 0 273.401 180.848">
	<rect width="100%" height="100%" fill="white" rx="5" />
<defs>
<clipPath id="clip_0">
<path transform="matrix(1,0,0,-1,-11.609,170.91301)" d="M24.28363-141.7378H218.55275V303.13417H24.28363"/>
</clipPath>
<clipPath id="clip_1">
<path transform="matrix(1,0,0,-1,-11.609,170.91301)" d="M-117.45236 0V161.39636H360.28877V0"/>
</clipPath>
<clipPath id="clip_2">
<path transform="matrix(1,0,0,-1,-11.609,170.91301)" d="M24.28363-141.7378H218.55275V303.13417H24.28363"/>
</clipPath>
<clipPath id="clip_3">
<path transform="matrix(1,0,0,-1,-11.609,170.91301)" d="M-117.45236 0V161.39636H360.28877V0"/>
</clipPath>
<clipPath id="clip_4">
<path transform="matrix(1,0,0,-1,-11.609,170.91301)" d="M24.28363 0H218.55275V161.39636H24.28363Z"/>
</clipPath>
</defs>
<g clip-path="url(#clip_0)">
<path transform="matrix(1,0,0,-1,-11.609,170.91301)" stroke-width=".09962" stroke-linecap="butt" stroke-miterlimit="10" stroke-linejoin="miter" fill="none" stroke="#e5e6e5" d="M29.14037 0V161.39636M33.99709 0V161.39636M38.85382 0V161.39636M43.71054 0V161.39636M48.56728 0V161.39636M53.424 0V161.39636M58.28073 0V161.39636M63.13745 0V161.39636M67.99419 0V161.39636M77.70764 0V161.39636M82.56438 0V161.39636M87.4211 0V161.39636M92.27783 0V161.39636M97.13455 0V161.39636M101.99129 0V161.39636M106.848 0V161.39636M111.70474 0V161.39636M116.56146 0V161.39636M126.27492 0V161.39636M131.13166 0V161.39636M135.98838 0V161.39636M140.84511 0V161.39636M145.70183 0V161.39636M150.55857 0V161.39636M155.41529 0V161.39636M160.27202 0V161.39636M165.12876 0V161.39636M174.84221 0V161.39636M179.69893 0V161.39636M184.55567 0V161.39636M189.41239 0V161.39636M194.26912 0V161.39636M199.12584 0V161.39636M203.98258 0V161.39636M208.8393 0V161.39636M213.69603 0V161.39636"/>
<path transform="matrix(1,0,0,-1,-11.609,170.91301)" stroke-width=".24907" stroke-linecap="butt" stroke-miterlimit="10" stroke-linejoin="miter" fill="none" stroke="#b2b3b2" d="M24.28363 0V161.39636M72.8509 0V161.39636M169.98548 0V161.39636M218.55275 0V161.39636"/>
</g>
<g clip-path="url(#clip_1)">
<path transform="matrix(1,0,0,-1,-11.609,170.91301)" stroke-width=".09962" stroke-linecap="butt" stroke-miterlimit="10" stroke-linejoin="miter" fill="none" stroke="#e5e6e5" d="M24.28363 4.0349H218.55275M24.28363 8.06981H218.55275M24.28363 12.10472H218.55275M24.28363 16.13963H218.55275M24.28363 20.17455H218.55275M24.28363 24.20944H218.55275M24.28363 28.24435H218.55275M24.28363 32.27927H218.55275M24.28363 36.31418H218.55275M24.28363 44.38399H218.55275M24.28363 48.4189H218.55275M24.28363 52.45381H218.55275M24.28363 56.48872H218.55275M24.28363 60.52364H218.55275M24.28363 64.55853H218.55275M24.28363 68.59344H218.55275M24.28363 72.62836H218.55275M24.28363 76.66327H218.55275M24.28363 84.73308H218.55275M24.28363 88.76799H218.55275M24.28363 92.8029H218.55275M24.28363 96.83781H218.55275M24.28363 100.87273H218.55275M24.28363 104.90762H218.55275M24.28363 108.94254H218.55275M24.28363 112.97745H218.55275M24.28363 117.01236H218.55275M24.28363 125.08217H218.55275M24.28363 129.11708H218.55275M24.28363 133.152H218.55275M24.28363 137.1869H218.55275M24.28363 141.22182H218.55275M24.28363 145.25672H218.55275M24.28363 149.29163H218.55275M24.28363 153.32654H218.55275M24.28363 157.36145H218.55275"/>
<path transform="matrix(1,0,0,-1,-11.609,170.91301)" stroke-width=".24907" stroke-linecap="butt" stroke-miterlimit="10" stroke-linejoin="miter" fill="none" stroke="#b2b3b2" d="M24.28363 0H218.55275M24.28363 40.34909H218.55275M24.28363 121.04727H218.55275M24.28363 161.39636H218.55275"/>
</g>
<g clip-path="url(#clip_2)">
<path transform="matrix(1,0,0,-1,-11.609,170.91301)" stroke-width=".19925" stroke-linecap="butt" stroke-miterlimit="10" stroke-linejoin="miter" fill="none" stroke="#7f807f" d="M29.14037 79.28072V82.11563M33.99709 79.28072V82.11563M38.85382 79.28072V82.11563M43.71054 79.28072V82.11563M48.56728 79.28072V82.11563M53.424 79.28072V82.11563M58.28073 79.28072V82.11563M63.13745 79.28072V82.11563M67.99419 79.28072V82.11563M77.70764 79.28072V82.11563M82.56438 79.28072V82.11563M87.4211 79.28072V82.11563M92.27783 79.28072V82.11563M97.13455 79.28072V82.11563M101.99129 79.28072V82.11563M106.848 79.28072V82.11563M111.70474 79.28072V82.11563M116.56146 79.28072V82.11563M126.27492 79.28072V82.11563M131.13166 79.28072V82.11563M135.98838 79.28072V82.11563M140.84511 79.28072V82.11563M145.70183 79.28072V82.11563M150.55857 79.28072V82.11563M155.41529 79.28072V82.11563M160.27202 79.28072V82.11563M165.12876 79.28072V82.11563M174.84221 79.28072V82.11563M179.69893 79.28072V82.11563M184.55567 79.28072V82.11563M189.41239 79.28072V82.11563M194.26912 79.28072V82.11563M199.12584 79.28072V82.11563M203.98258 79.28072V82.11563M208.8393 79.28072V82.11563M213.69603 79.28072V82.11563"/>
<path transform="matrix(1,0,0,-1,-11.609,170.91301)" stroke-width=".19925" stroke-linecap="butt" stroke-miterlimit="10" stroke-linejoin="miter" fill="none" stroke="#7f807f" d="M24.28363 78.57219V82.82414M72.8509 78.57219V82.82414M169.98548 78.57219V82.82414M218.55275 78.57219V82.82414"/>
</g>
<g clip-path="url(#clip_3)">
<path transform="matrix(1,0,0,-1,-11.609,170.91301)" stroke-width=".19925" stroke-linecap="butt" stroke-miterlimit="10" stroke-linejoin="miter" fill="none" stroke="#7f807f" d="M120.00075 4.0349H122.83565M120.00075 8.06981H122.83565M120.00075 12.10472H122.83565M120.00075 16.13963H122.83565M120.00075 20.17455H122.83565M120.00075 24.20944H122.83565M120.00075 28.24435H122.83565M120.00075 32.27927H122.83565M120.00075 36.31418H122.83565M120.00075 44.38399H122.83565M120.00075 48.4189H122.83565M120.00075 52.45381H122.83565M120.00075 56.48872H122.83565M120.00075 60.52364H122.83565M120.00075 64.55853H122.83565M120.00075 68.59344H122.83565M120.00075 72.62836H122.83565M120.00075 76.66327H122.83565M120.00075 84.73308H122.83565M120.00075 88.76799H122.83565M120.00075 92.8029H122.83565M120.00075 96.83781H122.83565M120.00075 100.87273H122.83565M120.00075 104.90762H122.83565M120.00075 108.94254H122.83565M120.00075 112.97745H122.83565M120.00075 117.01236H122.83565M120.00075 125.08217H122.83565M120.00075 129.11708H122.83565M120.00075 133.152H122.83565M120.00075 137.1869H122.83565M120.00075 141.22182H122.83565M120.00075 145.25672H122.83565M120.00075 149.29163H122.83565M120.00075 153.32654H122.83565M120.00075 157.36145H122.83565"/>
<path transform="matrix(1,0,0,-1,-11.609,170.91301)" stroke-width=".19925" stroke-linecap="butt" stroke-miterlimit="10" stroke-linejoin="miter" fill="none" stroke="#7f807f" d="M119.29224 0H123.54413M119.29224 40.34909H123.54413M119.29224 121.04727H123.54413M119.29224 161.39636H123.54413"/>
</g>
<path transform="matrix(1,0,0,-1,-11.609,170.91301)" stroke-width=".3985" stroke-linecap="butt" stroke-miterlimit="10" stroke-linejoin="miter" fill="none" stroke="#000000" d="M24.28363 80.69818H216.56023"/>
<path transform="matrix(1,0,0,-1,204.95124,90.21483)" d="M1.99252 0-1.19551 1.59401 0 0-1.19551-1.59401"/>
<path transform="matrix(1,0,0,-1,-11.609,170.91301)" stroke-width=".3985" stroke-linecap="butt" stroke-miterlimit="10" stroke-linejoin="miter" fill="none" stroke="#000000" d="M121.4182 0V159.40384"/>
<path transform="matrix(0,-1,-1,-0,109.8092,11.509171)" d="M1.99252 0-1.19551 1.59401 0 0-1.19551-1.59401"/>
<text xml:space="preserve" transform="matrix(1 0 -0 1 -.0000009536743 180.84803)" font-size="9.9626" font-family="CMSY10" font-style="italic"><tspan y="-78.566" x="6.309">&#x2212;</tspan></text>
<text xml:space="preserve" transform="matrix(1 0 -0 1 -.0000009536743 180.84803)" font-size="9.9626" font-family="CMR10"><tspan y="-78.566" x="14.058001">4</tspan></text>
<text xml:space="preserve" transform="matrix(1 0 -0 1 0 180.84803)" font-size="9.9626" font-family="CMSY10" font-style="italic"><tspan y="-78.566" x="54.876">&#x2212;</tspan></text>
<text xml:space="preserve" transform="matrix(1 0 -0 1 0 180.84803)" font-size="9.9626" font-family="CMR10"><tspan y="-78.566" x="62.625">2</tspan></text>
<text xml:space="preserve" transform="matrix(1 0 -0 1 0 180.84803)" font-size="9.9626" font-family="CMR10"><tspan y="-78.566" x="155.884">2</tspan></text>
<text xml:space="preserve" transform="matrix(1 0 -0 1 .000015258789 180.84803)" font-size="9.9626" font-family="CMR10"><tspan y="-78.566" x="204.45">4</tspan></text>
<text xml:space="preserve" transform="matrix(1 0 -0 1 0 180.848)" font-size="9.9626" font-family="CMSY10" font-style="italic"><tspan y="-7.14" x="91.432">&#x2212;</tspan></text>
<text xml:space="preserve" transform="matrix(1 0 -0 1 0 180.848)" font-size="9.9626" font-family="CMR10"><tspan y="-7.14" x="99.181">2</tspan></text>
<text xml:space="preserve" transform="matrix(1 0 -0 1 0 180.84803)" font-size="9.9626" font-family="CMSY10" font-style="italic"><tspan y="-47.488" x="91.432">&#x2212;</tspan></text>
<text xml:space="preserve" transform="matrix(1 0 -0 1 0 180.84803)" font-size="9.9626" font-family="CMR10"><tspan y="-47.488" x="99.181">1</tspan></text>
<text xml:space="preserve" transform="matrix(1 0 -0 1 0 180.848)" font-size="9.9626" font-family="CMR10"><tspan y="-127.77" x="99.181">1</tspan></text>
<text xml:space="preserve" transform="matrix(1 0 -0 1 0 180.848)" font-size="9.9626" font-family="CMR10"><tspan y="-168.119" x="99.181">2</tspan></text>
<g clip-path="url(#clip_4)">
<path transform="matrix(1,0,0,-1,-11.609,170.91301)" stroke-width=".79701" stroke-linecap="butt" stroke-miterlimit="10" stroke-linejoin="miter" fill="none" stroke="#0000ff" d="M0 40.34909H2.45264 4.90527 7.35791 9.81056 12.2632 14.71584 17.16849 19.62112 22.07376 24.52641 26.97905 29.43169 31.88434 34.33698L36.78961 40.34912 39.24226 40.34915 41.6949 40.34921 44.14754 40.34933 46.60019 40.3496 49.05283 40.35008 51.50546 40.35095 53.95811 40.35252 56.41075 40.35526 58.86339 40.35995 61.31602 40.36784 63.76868 40.38083 66.22131 40.40181 68.67395 40.43495 71.1266 40.48634 73.57924 40.56438 76.03188 40.68045 78.48453 40.84969 80.93716 41.0914 83.3898 41.42969 85.84245 41.89345 88.29509 42.51611 90.74773 43.33742 93.20038 44.39651 95.65302 45.73589 98.10565 47.39339 100.5583 49.4067 103.01094 51.7986 105.46358 54.58734 107.91624 57.77168 110.36888 61.33298 112.82152 65.23352 115.27415 69.42607 117.72682 73.83559 120.17946 78.38339 122.6321 82.96295 125.08475 87.51698 127.5374 91.92908 129.99004 96.1207 132.44269 100.02792 134.89533 103.59161 137.34796 106.77797 139.80063 109.57114 142.25327 111.96812 144.7059 113.98457 147.15856 115.6455 149.61119 116.98824 152.06385 118.04828 154.5165 118.87192 156.96913 119.49792 159.42177 119.96259 161.87442 120.30203 164.32706 120.5446 166.7797 120.71446 169.23233 120.83101 171.68498 120.90935 174.13762 120.96097 176.59026 120.99428 179.04291 121.01534 181.49555 121.0284 183.94818 121.03632 186.40084 121.04103 188.85347 121.04378 191.3061 121.04536 193.75876 121.04625 196.2114 121.04674 198.66403 121.047 201.11669 121.04713 203.56932 121.0472 206.02196 121.04723 208.47461 121.04726H210.92725L213.37989 121.04727H215.83254 218.28517 220.73781 223.19046 225.6431 228.09574 230.54837 233.00102 235.45366 237.9063 240.35895 242.81159"/>
<path transform="matrix(1,0,0,-1,-11.609,170.91301)" stroke-width=".3985" stroke-linecap="butt" stroke-miterlimit="10" stroke-linejoin="miter" fill="none" stroke="#ff0000" d="M0 40.88922 2.45264 40.94615 4.90527 41.00906 7.35791 41.07855 9.81056 41.15529 12.2632 41.24014 14.71584 41.33354 17.16849 41.4368 19.62112 41.55075 22.07376 41.67627 24.52641 41.81477 26.97905 41.96748 29.43169 42.13557 31.88434 42.32086 34.33698 42.52478 36.78961 42.74913 39.24226 42.9959 41.6949 43.26688 44.14754 43.5647 46.60019 43.89136 49.05283 44.2497 51.50546 44.64221 53.95811 45.07182 56.41075 45.5414 58.86339 46.05428 61.31602 46.61343 63.76868 47.2225 66.22131 47.88548 68.67395 48.60207 71.1266 49.38054 73.57924 50.2233 76.03188 51.13269 78.48453 52.11221 80.93716 53.1675 83.3898 54.29109 85.84245 55.49495 88.29509 56.77966 90.74773 58.14279 93.20038 59.58026 95.65302 61.10118 98.10565 62.69633 100.5583 64.36127 103.01094 66.10196 105.46358 67.9046 107.91624 69.76538 110.36888 71.677 112.82152 73.63272 115.27415 75.62393 117.72682 77.64015 120.17946 79.67249 122.6321 81.70609 125.08475 83.7379 127.5374 85.75443 129.99004 87.74579 132.44269 89.70235 134.89533 91.61543 137.34796 93.477 139.80063 95.27992 142.25327 97.01776 144.7059 98.6866 147.15856 100.28241 149.61119 101.80115 152.06385 103.24242 154.5165 104.6042 156.96913 105.88728 159.42177 107.0917 161.87442 108.21907 164.32706 109.27179 166.7797 110.25146 169.23233 111.16133 171.68498 112.00502 174.13762 112.78497 176.59026 113.50407 179.04291 114.16714 181.49555 114.77701 183.94818 115.33624 186.40084 115.84988 188.85347 116.31955 191.3061 116.75008 193.75876 117.14186 196.2114 117.50098 198.66403 117.82861 201.11669 118.12598 203.56932 118.39754 206.02196 118.64488 208.47461 118.8688 210.92725 119.07338 213.37989 119.25859 215.83254 119.42723 218.28517 119.58017 220.73781 119.71857 223.19046 119.84404 225.6431 119.95782 228.09574 120.06154 230.54837 120.15514 233.00102 120.24028 235.45366 120.31694 237.9063 120.38673 240.35895 120.44928 242.81159 120.50618"/>
</g>
<path transform="matrix(1,0,0,-1,-11.609,170.91301)" stroke-width=".3985" stroke-linecap="butt" stroke-miterlimit="10" stroke-linejoin="miter" fill="none" stroke="#000000" d="M228.46604 129.70703H281.82594V161.1971H228.46604Z"/>
<path transform="matrix(1,0,0,-1,220.241,18.18601)" stroke-width=".79701" stroke-linecap="butt" stroke-miterlimit="10" stroke-linejoin="miter" fill="none" stroke="#0000ff" d="M0 0H8.50412 17.00826"/>
<text xml:space="preserve" transform="matrix(1 0 -0 1 0 180.84803)" font-size="9.9626" font-family="CMR10"><tspan y="-159.673" x="239.64 244.0634 247.96874 251.79438">erf(</tspan></text>
<text xml:space="preserve" transform="matrix(1 0 -0 1 0 180.84803)" font-size="9.9626" font-family="CMMI10" font-style="italic"><tspan y="-159.673" x="255.664">x</tspan></text>
<text xml:space="preserve" transform="matrix(1 0 -0 1 0 180.84803)" font-size="9.9626" font-family="CMR10"><tspan y="-159.673" x="261.358">)</tspan></text>
<path transform="matrix(1,0,0,-1,220.241,31.93901)" stroke-width=".3985" stroke-linecap="butt" stroke-miterlimit="10" stroke-linejoin="miter" fill="none" stroke="#ff0000" d="M0 0H8.50412 17.00826"/>
<text xml:space="preserve" transform="matrix(1 0 -0 1 0 180.84803)" font-size="6.9738" font-family="CMMI7" font-style="italic"><tspan y="-149.042" x="243.226">e</tspan></text>
<text xml:space="preserve" transform="matrix(1 0 -0 1 0 180.84803)" font-size="4.9813" font-family="CMMI5" font-style="italic"><tspan y="-152.04901" x="247.006">x</tspan></text>
<text xml:space="preserve" transform="matrix(1 0 -0 1 0 180.84803)" font-size="6.9738" font-family="CMSY7" font-style="italic"><tspan y="-149.042" x="251.448">&#x2212;</tspan></text>
<text xml:space="preserve" transform="matrix(1 0 -0 1 0 180.84803)" font-size="6.9738" font-family="CMR7"><tspan y="-149.042" x="257.675">1</tspan></text>
<path transform="matrix(1,0,0,-1,243.226,33.23802)" stroke-width=".398" stroke-linecap="butt" stroke-miterlimit="10" stroke-linejoin="miter" fill="none" stroke="#000000" d="M0 0H18.42"/>
<text xml:space="preserve" transform="matrix(1 0 -0 1 0 180.84803)" font-size="6.9738" font-family="CMMI7" font-style="italic"><tspan y="-141.684" x="243.282">e</tspan></text>
<text xml:space="preserve" transform="matrix(1 0 -0 1 0 180.84803)" font-size="4.9813" font-family="CMMI5" font-style="italic"><tspan y="-143.67601" x="247.062">x</tspan></text>
<text xml:space="preserve" transform="matrix(1 0 -0 1 0 180.84803)" font-size="6.9738" font-family="CMR7"><tspan y="-141.684" x="251.50299 257.61903">+1</tspan></text>
</svg>
